<?xml version="1.0" encoding="UTF-8"?>
<!DOCTYPE svg PUBLIC "-//W3C//DTD SVG 1.1//EN" "http://www.w3.org/Graphics/SVG/1.1/DTD/svg11.dtd">
<svg xmlns="http://www.w3.org/2000/svg" version="1.1" width="96px" height="96px" style="shape-rendering:geometricPrecision; text-rendering:geometricPrecision; image-rendering:optimizeQuality; fill-rule:evenodd; clip-rule:evenodd" xmlns:xlink="http://www.w3.org/1999/xlink">
<g><path style="opacity:0.819" fill="#000000" d="M 42.5,-0.5 C 48.1667,-0.5 53.8333,-0.5 59.5,-0.5C 64.3209,0.830465 69.1543,2.49713 74,4.5C 84.4293,1.19714 88.7627,4.8638 87,15.5C 86.5,17.3333 85.3333,18.5 83.5,19C 77.9576,20.6194 73.6242,19.1194 70.5,14.5C 69.6919,14.8076 69.0253,15.3076 68.5,16C 70.4517,18.7369 72.9517,20.9036 76,22.5C 78.9049,26.3478 79.0716,30.1812 76.5,34C 84.1639,41.1344 85.4972,49.3011 80.5,58.5C 83.4737,67.3856 80.4737,73.2189 71.5,76C 66.0423,85.3053 58.3757,91.8053 48.5,95.5C 45.5,95.5 42.5,95.5 39.5,95.5C 30.3526,92.1902 23.8526,85.8568 20,76.5C 10.7466,73.6583 7.57989,67.6583 10.5,58.5C 5.50277,49.3011 6.8361,41.1344 14.5,34C 11.4965,27.1386 13.4965,21.972 20.5,18.5C 25.5022,9.35164 32.8355,3.0183 42.5,-0.5 Z M 43.5,4.5 C 52.9281,3.55986 61.9281,5.05986 70.5,9C 64.6169,10.1084 62.6169,13.4417 64.5,19C 51.8202,19.8326 39.1535,19.666 26.5,18.5C 31.0226,12.2985 36.6892,7.63182 43.5,4.5 Z M 77.5,8.5 C 82.1585,8.01463 83.4919,9.84796 81.5,14C 76.7282,14.8104 75.3948,12.9771 77.5,8.5 Z M 23.5,23.5 C 38.1705,23.3334 52.8371,23.5001 67.5,24C 70.6026,24.6016 72.6026,26.4349 73.5,29.5C 72.9747,30.1924 72.3081,30.6924 71.5,31C 54.1667,31.6667 36.8333,31.6667 19.5,31C 17.2329,29.9188 17.0662,28.4188 19,26.5C 20.4087,25.2189 21.9087,24.2189 23.5,23.5 Z M 23.5,35.5 C 38.1705,35.3334 52.8371,35.5001 67.5,36C 70.2672,40.8173 71.1005,45.984 70,51.5C 68.4913,53.8809 66.3247,54.8809 63.5,54.5C 57.6434,52.6595 51.6434,51.6595 45.5,51.5C 38.171,52.6727 30.8376,53.506 23.5,54C 21.051,52.1367 20.051,49.6367 20.5,46.5C 20.4924,42.5279 21.4924,38.8612 23.5,35.5 Z M 15.5,40.5 C 15.1115,45.6278 15.6115,50.6278 17,55.5C 19.6926,58.8575 23.1926,60.1908 27.5,59.5C 33.52,58.4826 39.52,57.4826 45.5,56.5C 49.7413,56.2533 53.7413,57.0866 57.5,59C 72.3461,61.6528 78.3461,55.4862 75.5,40.5C 77.8942,42.3318 78.8942,44.8318 78.5,48C 78.3457,51.6276 77.3457,54.961 75.5,58C 76.4257,61.1389 76.5923,64.3056 76,67.5C 73.4894,69.5628 70.656,71.0628 67.5,72C 62.9376,79.5633 56.771,85.3966 49,89.5C 46.077,87.3056 42.9103,86.9723 39.5,88.5C 36.9722,88.2372 34.6389,87.4039 32.5,86C 28.7788,82.0572 25.9454,77.5572 24,72.5C 20.781,71.2067 17.781,69.5401 15,67.5C 14.4077,64.3056 14.5743,61.1389 15.5,58C 12.7802,53.5529 11.9469,48.7196 13,43.5C 13.8518,42.4293 14.6851,41.4293 15.5,40.5 Z"/></g>
<g><path style="opacity:0.828" fill="#000000" d="M 32.5,39.5 C 39.1584,38.3445 41.1584,40.8445 38.5,47C 31.7496,48.4689 29.7496,45.9689 32.5,39.5 Z"/></g>
<g><path style="opacity:0.828" fill="#000000" d="M 52.5,39.5 C 59.1584,38.3445 61.1584,40.8445 58.5,47C 51.7496,48.4689 49.7496,45.9689 52.5,39.5 Z"/></g>
<g><path style="opacity:0.781" fill="#000000" d="M 35.5,59.5 C 38.7956,60.4232 42.1289,61.4232 45.5,62.5C 48.8711,61.4232 52.2044,60.4232 55.5,59.5C 54.9223,65.3977 51.589,68.0644 45.5,67.5C 39.411,68.0644 36.0777,65.3977 35.5,59.5 Z"/></g>
</svg>
