<?xml version="1.0" standalone="no"?>
<!DOCTYPE svg PUBLIC "-//W3C//DTD SVG 20010904//EN"
 "http://www.w3.org/TR/2001/REC-SVG-20010904/DTD/svg10.dtd">
<svg version="1.0" xmlns="http://www.w3.org/2000/svg"
 width="96.000000pt" height="96.000000pt" viewBox="0 0 96.000000 96.000000"
 preserveAspectRatio="xMidYMid meet">
<metadata>
Created by potrace 1.16, written by Peter Selinger 2001-2019
</metadata>
<g transform="translate(0.000000,96.000000) scale(0.100000,-0.100000)"
fill="#000000" stroke="none">
<path d="M382 936 c-55 -27 -156 -120 -167 -155 -3 -11 -15 -23 -26 -26 -41
-13 -78 -112 -48 -131 7 -4 2 -16 -14 -33 -13 -14 -30 -36 -36 -48 -15 -30
-14 -125 2 -147 9 -12 12 -36 9 -67 -6 -59 12 -90 66 -118 26 -13 44 -32 57
-60 24 -55 94 -118 139 -126 20 -4 36 -12 36 -17 0 -16 99 -4 142 16 49 24
121 88 148 132 12 19 39 44 61 54 55 29 73 60 67 119 -3 31 0 55 9 67 16 22
17 117 2 147 -6 12 -23 34 -36 48 -16 17 -21 29 -14 33 31 19 -2 107 -48 130
-31 17 -46 42 -30 52 5 3 21 -6 34 -20 31 -33 95 -36 125 -6 28 28 27 93 -1
121 -18 18 -30 21 -73 16 -37 -3 -65 1 -101 16 -34 13 -81 21 -150 24 -91 4
-105 2 -153 -21z m264 -47 l69 -22 -32 -13 c-33 -14 -51 -49 -39 -79 5 -13
-20 -15 -184 -15 -105 0 -190 4 -190 8 0 15 85 91 130 116 59 33 149 35 246 5z
m48 -179 c33 -12 54 -49 35 -61 -8 -5 -129 -9 -269 -9 -140 0 -261 4 -269 9
-18 11 2 49 32 61 30 12 439 12 471 0z m2 -145 c19 -47 18 -114 -3 -137 -20
-22 -66 -23 -123 -3 -23 8 -73 15 -110 15 -37 0 -87 -7 -110 -15 -55 -20 -99
-19 -122 2 -22 20 -24 89 -4 138 l15 35 221 0 221 0 15 -35z m-534 -75 c-3
-66 -2 -71 26 -100 27 -26 38 -30 87 -30 30 0 72 7 92 15 19 8 61 15 93 15 32
0 74 -7 93 -15 20 -8 62 -15 92 -15 49 0 60 4 87 30 28 29 29 34 26 100 -3 68
-3 69 14 48 21 -27 23 -90 5 -121 -6 -12 -12 -49 -12 -81 l0 -59 -42 -21 c-23
-12 -55 -40 -71 -61 -35 -48 -104 -112 -138 -127 -20 -9 -27 -9 -33 1 -6 9
-21 11 -53 6 -33 -5 -54 -2 -77 9 -30 16 -101 109 -101 133 0 7 -21 23 -47 36
l-48 24 0 59 c0 32 -6 69 -12 81 -18 30 -16 89 3 118 9 14 17 25 18 25 0 0 0
-31 -2 -70z"/>
</g>
</svg>
