<svg height="98" viewBox="0 0 81 98" width="81" xmlns="http://www.w3.org/2000/svg"><g fill="#fff" fill-rule="evenodd"><path d="m31.6560235 3.42410278c9.2431494-3.70440497 13.3176614-3.42410278 20.8439765-1.92410278 4.8209 1.330465 9.6543 2.99713 14.5 5 10.4293-3.30286 14.7627.3638 13 11-.5 1.8333-1.6667 3-3.5 3.5-5.5424 1.6194-9.8758.1194-13-4.5-.8081.3076-1.4747.8076-2 1.5 1.9517 2.7369 4.4517 4.9036 7.5 6.5 2.9049 3.8478 3.0716 7.6812.5 11.5 7.6639 7.1344 8.9972 15.3011 4 24.5 2.9737 8.8856-.0263 14.7189-9 17.5-5.4577 9.3053-13.1243 15.8053-23 19.5-3 0-6 0-9 0-9.1474-3.3098-15.6474-9.6432-19.5-19-9.2534-2.8417-12.42011-8.8417-9.5-18-4.99723-9.1989-3.6639-17.3656 4-24.5-3.0035-6.8614-1.0035-12.028 6-15.5 5.0191818-9.0828668 8.9128741-13.37149225 18.1560235-17.07589722zm4.8439765 3.07589722c8.8797026-1.91720852 18.4281.55986 27 4.5-5.8831 1.1084-7.8831 4.4417-6 10-12.6798.8326-25.3465.666-38-.5 4.5226-6.2015 8.1202974-12.08279148 17-14zm36 10.5c-1.9329966 0-3.5-1.5670034-3.5-3.5s1.5670034-3.5 3.5-3.5 3.5 1.5670034 3.5 3.5-1.5670034 3.5-3.5 3.5zm-56 8.5c14.6705-.1666 29.3371.0001 44 .5 3.1026.6016 5.1026 2.4349 6 5.5-.5253.6924-1.1919 1.1924-2 1.5-17.3333.6667-34.6667.6667-52 0-2.2671-1.0812-2.4338-2.5812-.5-4.5 1.4087-1.2811 2.9087-2.2811 4.5-3zm0 12c14.6705-.1666 29.3371.0001 44 .5 2.7672 4.8173 3.6005 9.984 2.5 15.5-1.5087 2.3809-3.6753 3.3809-6.5 3-5.8566-1.8405-11.8566-2.8405-18-3-7.329 1.1727-14.6624 2.006-22 2.5-2.449-1.8633-3.449-4.3633-3-7.5-.0076-3.9721.9924-7.6388 3-11zm-8 5c-.3885 5.1278.1115 10.1278 1.5 15 2.6926 3.3575 6.1926 4.6908 10.5 4 6.02-1.0174 12.02-2.0174 18-3 4.2413-.2467 8.2413.5866 12 2.5 14.8461 2.6528 20.8461-3.5138 18-18.5 2.3942 1.8318 3.3942 4.3318 3 7.5-.1543 3.6276-1.1543 6.961-3 10 .9257 3.1389 1.0923 6.3056.5 9.5-2.5106 2.0628-5.344 3.5628-8.5 4.5-4.5624 7.5633-10.729 13.3966-18.5 17.5-2.923-2.1944-6.0897-2.5277-9.5-1-2.5278-.2628-4.8611-1.0961-7-2.5-3.7212-3.9428-6.5546-8.4428-8.5-13.5-3.219-1.2933-6.219-2.9599-9-5-.5923-3.1944-.4257-6.3611.5-9.5-2.7198-4.4471-3.5531-9.2804-2.5-14.5.8518-1.0707 1.6851-2.0707 2.5-3z"/><path d="m30.7310836 62.1607476c3.1967255.9490661 5.7863643 1.7288169 7.7689164 2.3392524 3.3324955-1.0010382 6.0332705-1.6298852 8.102325-1.8865411l.0000028.0000224c.5480717-.0679855 1.0474848.3212012 1.1154704.8692729.0284167.2290843-.023299.460945-.1463721.65624-2.4617668 3.9063826-5.4855755 5.6933845-9.0714261 5.3610058-3.5197461.3262514-6.4936717-1.635232-8.9217767-5.8844503l-.0000203.0000116c-.2740147-.4795296-.107412-1.090398.3721176-1.3644127.2370082-.1354321.5190783-.1680917.780763-.090401z"/><g fill-rule="nonzero"><circle cx="30" cy="46" r="4"/><circle cx="48" cy="46" r="4"/></g></g></svg>